<svg width="32" height="32" viewBox="0 0 32 32" xmlns="http://www.w3.org/2000/svg">
  <!-- Frederick the cat icon -->
  <circle cx="16" cy="16" r="14" fill="#6B5A3E"/>
  <circle cx="16" cy="16" r="12" fill="#8B7355"/>
  
  <!-- Ears -->
  <path d="M8 10 L6 6 L10 8 Z" fill="#6B5A3E"/>
  <path d="M24 10 L26 6 L22 8 Z" fill="#6B5A3E"/>
  
  <!-- Eyes -->
  <circle cx="12" cy="14" r="2" fill="#2D4A3E"/>
  <circle cx="20" cy="14" r="2" fill="#2D4A3E"/>
  <circle cx="12.5" cy="13.5" r="0.8" fill="#E8C96A"/>
  <circle cx="20.5" cy="13.5" r="0.8" fill="#E8C96A"/>
  
  <!-- Nose -->
  <path d="M16 17 L14 19 L16 20 L18 19 Z" fill="#2D4A3E"/>
  
  <!-- Whiskers -->
  <line x1="8" y1="18" x2="4" y2="17" stroke="#2D4A3E" stroke-width="0.5"/>
  <line x1="8" y1="19" x2="4" y2="20" stroke="#2D4A3E" stroke-width="0.5"/>
  <line x1="24" y1="18" x2="28" y2="17" stroke="#2D4A3E" stroke-width="0.5"/>
  <line x1="24" y1="19" x2="28" y2="20" stroke="#2D4A3E" stroke-width="0.5"/>
  
  <!-- Smile -->
  <path d="M16 20 Q13 22 11 20" stroke="#2D4A3E" stroke-width="0.8" fill="none"/>
  <path d="M16 20 Q19 22 21 20" stroke="#2D4A3E" stroke-width="0.8" fill="none"/>
</svg>
